<?xml version="1.0"?>
<svg xmlns="http://www.w3.org/2000/svg" viewBox="0 0 64 64" width="512" height="512"><g id="outline"><path d="M54.788,2.425A1,1,0,0,0,54,2.04l-15.941,0A34.543,34.543,0,0,0,33,2.175,32.817,32.817,0,0,0,3,35.04a1,1,0,0,0,1,1H24.592L36.211,48.619,38,51.3V61a1,1,0,0,0,1,1h4a1,1,0,0,0,1-1V51.3l1.8-2.7,6.969-8.492.447.559A1,1,0,0,0,54,41.04h3a1,1,0,0,0,1-1V31.275l3.9-7.83a1,1,0,0,0,.1-.555,26.789,26.789,0,0,0-7.71-15.984l-.176-.175.862-3.449A1,1,0,0,0,54.788,2.425ZM37.029,46.557l-10-10.827,2.064-.751,9.511,10ZM31.143,34.234l6.033-2.194h4.588l6.994,3.5L41.539,44h-1.11ZM42,60H40V52h2Zm.465-10h-2.93l-1.248-1.873L40.414,46h1.172l2.127,2.127Zm2.465-3.484-1.57-1.57,6.856-8.036,1.279,1.6ZM56,39.04H54.48l-3.7-4.625a1,1,0,0,0-.334-.269L46.236,32.04H56Zm3.972-16.219L56.38,30.04H37a1,1,0,0,0-.342.061L25.824,34.04H5.016A30.816,30.816,0,0,1,33.177,4.167,33.074,33.074,0,0,1,38,4.04H52.719L52.03,6.8a1,1,0,0,0,.265.951l.579.575A24.783,24.783,0,0,1,59.972,22.821Z"/><path d="M47.945,22.04H38.75c-.351,0-.7.028-1.043.058H37.7A11.918,11.918,0,0,0,29.527,26.4,1,1,0,0,0,30.3,28.04H46a10.668,10.668,0,0,0,1.172-.069c.168-.019.333-.05.5-.076.207-.033.414-.066.62-.111.224-.048.444-.108.665-.17.133-.038.266-.076.4-.12.254-.081.5-.171.75-.271.038-.015.077-.026.115-.041.012,0,.02-.016.031-.022a11,11,0,0,0,4.55-3.52,1,1,0,0,0-.8-1.6Zm-15.168,4c.089-.067.184-.127.275-.191l.269.191Zm3.883,0c-.543-.434-1.094-.854-1.648-1.26a10.052,10.052,0,0,1,2.486-.649q1.173.921,2.284,1.909Zm6.039,0q-1.053-1.026-2.179-2h2.027q.705.987,1.348,2Zm4.668-.111-.132.017c-.277.04-.555.063-.833.077l-.152.006c-.4-.667-.819-1.332-1.258-1.989h2.4c.339.543.671,1.1.992,1.666A9.124,9.124,0,0,1,47.367,25.929Zm2.886-.969c-.173-.308-.342-.618-.52-.92h1.919A9.052,9.052,0,0,1,50.253,24.96Z"/><path d="M21.818,19.319c.008-.007.019-.009.027-.016a28.7,28.7,0,0,1,3.643-2.763c.017-.011.029-.027.045-.038A28.293,28.293,0,0,1,32.7,13.231c.014,0,.028,0,.042-.006a28.569,28.569,0,0,1,3.648-.827l.088-.013q.6-.093,1.2-.16l.012,0a28.808,28.808,0,0,1,3.132-.181H43.17a7.008,7.008,0,0,0,6.6-4.667,1,1,0,0,0-.943-1.333h-8.01A34.351,34.351,0,0,0,12.178,21.365l-3.413,5.12A1,1,0,0,0,9.6,28.04h1.321a7.5,7.5,0,0,0,6.251-3.346A28.518,28.518,0,0,1,21.818,19.319Zm19-11.279h6.353a5.006,5.006,0,0,1-4,2H40.814c-.987,0-1.965.062-2.936.155Q36.831,9.3,35.746,8.451A32.537,32.537,0,0,1,40.814,8.04Zm-7.665.934q1.035.77,2.048,1.586c-.858.161-1.7.37-2.538.6-.66-.505-1.331-1-2.007-1.477C31.467,9.417,32.3,9.18,33.149,8.974Zm-4.793,1.563q.987.667,1.958,1.378a30.236,30.236,0,0,0-5.488,2.658q-1.123-.462-2.282-.891A32.265,32.265,0,0,1,28.356,10.537Zm-9.547,6.122c.574-.527,1.181-1.045,1.815-1.549q1.119.39,2.216.815-.91.668-1.771,1.406c-.033.028-.07.053-.1.081-.718-.264-1.44-.514-2.16-.752Zm-3.3,6.926a5.5,5.5,0,0,1-4.021,2.426l2.358-3.536a32.581,32.581,0,0,1,3.365-4.22q1.05.329,2.1.7A30.581,30.581,0,0,0,15.505,23.585Z"/><path d="M38.935,14.04c-.505,0-1.007.022-1.507.056h-.013c-.517.036-1.03.093-1.54.165h-.007A22.007,22.007,0,0,0,28.5,16.679l0,0c-.039.02-.075.044-.113.065-.318.173-.634.352-.943.541-.028.017-.055.036-.083.054a21.872,21.872,0,0,0-2.728,1.991c-.048.042-.1.08-.148.122l0,0a21.993,21.993,0,0,0-3.615,4.026l-2.077,2.987a1,1,0,0,0,.82,1.571h4.02a2.637,2.637,0,0,0,2.162-1.129,15.982,15.982,0,0,1,3.871-3.9h0a16.091,16.091,0,0,1,9.277-2.969h8.816a7.045,7.045,0,0,0,6.619-4.663,1,1,0,0,0-.942-1.337H38.935ZM24.146,25.769a.636.636,0,0,1-.52.271H21.521l.984-1.415A19.989,19.989,0,0,1,25.314,21.4q.984.463,1.932.954A17.99,17.99,0,0,0,24.146,25.769Zm6.876-5.887q-.456.223-.9.471l-.142.08c-.3.174-.6.356-.891.546-.023.015-.047.028-.069.042-.654-.352-1.326-.7-2.009-1.031.063-.047.127-.093.191-.139.224-.162.451-.322.683-.475.084-.056.169-.109.254-.163.253-.162.508-.32.769-.471l.082-.047q1.063.55,2.107,1.147C31.072,19.854,31.047,19.869,31.022,19.882Zm2.41-.976q-1.106-.67-2.244-1.295a19.943,19.943,0,0,1,4.487-1.3q.95.876,1.851,1.787A18,18,0,0,0,33.432,18.906ZM51.765,16.04a5.043,5.043,0,0,1-4.013,2H45.543q-.816-1.014-1.69-2Zm-11.522,2q-.927-1-1.923-1.981c.2-.006.409-.019.615-.019h2.217q.927.98,1.8,2Z"/></g></svg>
